<svg width="20" height="20" viewBox="0 0 20 20" fill="none" xmlns="http://www.w3.org/2000/svg">
<path d="M13.9584 2.96663V1.66663C13.9584 1.32496 13.6751 1.04163 13.3334 1.04163C12.9918 1.04163 12.7084 1.32496 12.7084 1.66663V2.91663H7.29178V1.66663C7.29178 1.32496 7.00844 1.04163 6.66678 1.04163C6.32511 1.04163 6.04178 1.32496 6.04178 1.66663V2.96663C3.79178 3.17496 2.70011 4.51663 2.53344 6.50829C2.51678 6.74996 2.71678 6.94996 2.95011 6.94996H17.0501C17.2918 6.94996 17.4918 6.74163 17.4668 6.50829C17.3001 4.51663 16.2084 3.17496 13.9584 2.96663Z" fill="#2962FF"/>
<path d="M16.6667 8.19983H3.33333C2.875 8.19983 2.5 8.5748 2.5 9.03313V14.1665C2.5 16.6665 3.75 18.3331 6.66667 18.3331H13.3333C16.25 18.3331 17.5 16.6665 17.5 14.1665V9.03313C17.5 8.5748 17.125 8.19983 16.6667 8.19983ZM7.675 15.1748C7.59167 15.2498 7.5 15.3081 7.4 15.3498C7.3 15.3915 7.19167 15.4165 7.08333 15.4165C6.975 15.4165 6.86667 15.3915 6.76667 15.3498C6.66667 15.3081 6.575 15.2498 6.49167 15.1748C6.34167 15.0165 6.25 14.7998 6.25 14.5831C6.25 14.3665 6.34167 14.1498 6.49167 13.9915C6.575 13.9165 6.66667 13.8581 6.76667 13.8165C6.96667 13.7331 7.2 13.7331 7.4 13.8165C7.5 13.8581 7.59167 13.9165 7.675 13.9915C7.825 14.1498 7.91667 14.3665 7.91667 14.5831C7.91667 14.7998 7.825 15.0165 7.675 15.1748ZM7.85 11.9831C7.80833 12.0831 7.75 12.1748 7.675 12.2581C7.59167 12.3331 7.5 12.3915 7.4 12.4331C7.3 12.4748 7.19167 12.4998 7.08333 12.4998C6.975 12.4998 6.86667 12.4748 6.76667 12.4331C6.66667 12.3915 6.575 12.3331 6.49167 12.2581C6.41667 12.1748 6.35833 12.0831 6.31667 11.9831C6.275 11.8831 6.25 11.7748 6.25 11.6665C6.25 11.5581 6.275 11.4498 6.31667 11.3498C6.35833 11.2498 6.41667 11.1581 6.49167 11.0748C6.575 10.9998 6.66667 10.9415 6.76667 10.8998C6.96667 10.8165 7.2 10.8165 7.4 10.8998C7.5 10.9415 7.59167 10.9998 7.675 11.0748C7.75 11.1581 7.80833 11.2498 7.85 11.3498C7.89167 11.4498 7.91667 11.5581 7.91667 11.6665C7.91667 11.7748 7.89167 11.8831 7.85 11.9831ZM10.5917 12.2581C10.5083 12.3331 10.4167 12.3915 10.3167 12.4331C10.2167 12.4748 10.1083 12.4998 10 12.4998C9.89167 12.4998 9.78333 12.4748 9.68333 12.4331C9.58333 12.3915 9.49167 12.3331 9.40833 12.2581C9.25833 12.0998 9.16667 11.8831 9.16667 11.6665C9.16667 11.4498 9.25833 11.2331 9.40833 11.0748C9.49167 10.9998 9.58333 10.9415 9.68333 10.8998C9.88333 10.8081 10.1167 10.8081 10.3167 10.8998C10.4167 10.9415 10.5083 10.9998 10.5917 11.0748C10.7417 11.2331 10.8333 11.4498 10.8333 11.6665C10.8333 11.8831 10.7417 12.0998 10.5917 12.2581Z" fill="#2962FF"/>
</svg>
