<svg width="20" height="20" viewBox="0 0 20 20" fill="none" xmlns="http://www.w3.org/2000/svg">
<path d="M17.1844 7.04158C16.3094 3.19159 12.9511 1.45825 10.0011 1.45825C10.0011 1.45825 10.0011 1.45825 9.99275 1.45825C7.05106 1.45825 3.68439 3.18325 2.80939 7.03325C1.83439 11.3333 4.46772 14.9749 6.85106 17.2666C7.73439 18.1166 8.86775 18.5416 10.0011 18.5416C11.1344 18.5416 12.2677 18.1166 13.1427 17.2666C15.5261 14.9749 18.1594 11.3416 17.1844 7.04158ZM10.0011 11.2166C8.55108 11.2166 7.37606 10.0416 7.37606 8.59159C7.37606 7.14158 8.55108 5.96658 10.0011 5.96658C11.4511 5.96658 12.6261 7.14158 12.6261 8.59159C12.6261 10.0416 11.4511 11.2166 10.0011 11.2166Z" fill="#2962FF"/>
</svg>
