<svg width="16" height="16" viewBox="0 0 16 16" fill="none" xmlns="http://www.w3.org/2000/svg">
<path d="M13.7475 5.63329C13.0475 2.55329 10.3608 1.16663 8.00082 1.16663C8.00082 1.16663 8.00082 1.16663 7.99415 1.16663C5.6408 1.16663 2.94746 2.54663 2.24746 5.62663C1.46746 9.06663 3.57413 11.98 5.4808 13.8133C6.18746 14.4933 7.09415 14.8333 8.00082 14.8333C8.90748 14.8333 9.81415 14.4933 10.5141 13.8133C12.4208 11.98 14.5275 9.07329 13.7475 5.63329ZM8.00082 8.97329C6.84082 8.97329 5.9008 8.03329 5.9008 6.87329C5.9008 5.71329 6.84082 4.77329 8.00082 4.77329C9.16082 4.77329 10.1008 5.71329 10.1008 6.87329C10.1008 8.03329 9.16082 8.97329 8.00082 8.97329Z" fill="white"/>
</svg>
