<svg width="32" height="32" viewBox="0 0 32 32" fill="none" xmlns="http://www.w3.org/2000/svg">
<path d="M12 9.59996V22.3866C12 26.6666 14.6667 29.3333 18.9333 29.3333H22.3867C26.6533 29.3333 29.32 26.6666 29.32 22.4V9.59996C29.3333 5.33329 26.6667 2.66663 22.4 2.66663H18.9333C14.6667 2.66663 12 5.33329 12 9.59996Z" fill="#DFE7FF"/>
<path d="M16.5734 10.826L21.0401 15.2926C21.4267 15.6793 21.4267 16.3193 21.0401 16.706L16.5734 21.1726C16.1867 21.5593 15.5467 21.5593 15.1601 21.1726C14.7734 20.786 14.7734 20.146 15.1601 19.7593L17.9201 16.9993H3.66675C3.12008 16.9993 2.66675 16.546 2.66675 15.9993C2.66675 15.4526 3.12008 14.9993 3.66675 14.9993H17.9201L15.1601 12.2393C14.9601 12.0393 14.8667 11.786 14.8667 11.5327C14.8667 11.2793 14.9601 11.026 15.1601 10.826C15.5467 10.426 16.1734 10.426 16.5734 10.826Z" fill="url(#paint0_linear_628_9770)"/>
<defs>
<linearGradient id="paint0_linear_628_9770" x1="21.0968" y1="21.326" x2="11.7941" y2="5.45091" gradientUnits="userSpaceOnUse">
<stop stop-color="#2962FF"/>
<stop offset="1" stop-color="#0D47A1"/>
</linearGradient>
</defs>
</svg>
