<svg width="32" height="32" viewBox="0 0 32 32" fill="none" xmlns="http://www.w3.org/2000/svg">
<path d="M7 4C7 3.44775 7.44769 3 8 3H9C9.55231 3 10 3.44775 10 4V5H22V4C22 3.44775 22.4477 3 23 3H24C24.5523 3 25 3.44775 25 4V5H27C28.1046 5 29 5.89551 29 7V25C29 26.1045 28.1046 27 27 27H5C3.89545 27 3 26.1045 3 25V7C3 5.89551 3.89545 5 5 5H7V4Z" fill="url(#paint0_linear_734_9990)"/>
<path d="M15 7H17V9H15V7Z" fill="white"/>
<path d="M15 11H17V13H15V11Z" fill="white"/>
<path d="M17 15H15V17H17V15Z" fill="white"/>
<path d="M15 19H17V21H15V19Z" fill="white"/>
<path d="M17 23H15V25H17V23Z" fill="white"/>
<path d="M6 12.5C6 12.2239 6.22388 12 6.5 12H11.5C11.7761 12 12 12.2239 12 12.5V16C12 16.2761 11.7761 16.5 11.5 16.5C11.5 16.5 9 16.5 8.5 16.5C8 16.5 8 17 8 17V18C8 18 8 18.5 8.5 18.5C9 18.5 11.5 18.5 11.5 18.5C11.7761 18.5 12 18.7239 12 19V19.5C12 19.7761 11.7761 20 11.5 20H6.5C6.22388 20 6 19.7761 6 19.5V15.5C6 15.2239 6.22388 15 6.5 15H9.52219C9.52219 15 9.3134 15 9.5 15C10 15 10 14.5 10 14.5V14C10 14 10 13.5 9.5 13.5C9 13.5 6.5 13.5 6.5 13.5C6.22388 13.5 6 13.2761 6 13V12.5Z" fill="white"/>
<path fill-rule="evenodd" clip-rule="evenodd" d="M21 12C20.4477 12 20 12.4477 20 13V19C20 19.5523 20.4477 20 21 20H25C25.5523 20 26 19.5523 26 19V13C26 12.4477 25.5523 12 25 12H21ZM22 13.5C21.7239 13.5 21.5 13.7239 21.5 14V18C21.5 18.2761 21.7239 18.5 22 18.5H24C24.2761 18.5 24.5 18.2761 24.5 18V14C24.5 13.7239 24.2761 13.5 24 13.5H22Z" fill="white"/>
<defs>
<linearGradient id="paint0_linear_734_9990" x1="28.675" y1="26.7001" x2="5.34974" y2="1.43114" gradientUnits="userSpaceOnUse">
<stop stop-color="#2962FF"/>
<stop offset="1" stop-color="#0D47A1"/>
</linearGradient>
</defs>
</svg>
