<svg width="316" height="255" viewBox="0 0 216 215" fill="none" xmlns="http://www.w3.org/2000/svg">
<g opacity="0.5">
<path d="M211.481 135.261C211.195 136.331 210.891 137.398 210.57 138.46C210.338 137.346 210.641 136.142 211.481 135.261Z" fill="white"/>
<path d="M215.089 103.999C215.161 106.28 215.161 108.563 215.089 110.844C213.872 111.206 212.501 110.907 211.541 109.947C210.146 108.552 210.146 106.291 211.541 104.896C212.501 103.936 213.872 103.637 215.089 103.999Z" fill="white"/>
<path d="M210.57 76.3828C210.891 77.4451 211.195 78.5115 211.481 79.5814C210.641 78.7011 210.338 77.4971 210.57 76.3828Z" fill="white"/>
<path d="M135.84 3.94008C136.91 4.22686 137.976 4.53048 139.039 4.85094C137.924 5.08384 136.72 4.78022 135.84 3.94008Z" fill="white"/>
<path d="M104.577 0.332838C106.858 0.260384 109.142 0.260384 111.423 0.332838C111.785 1.54912 111.486 2.92035 110.525 3.88072C109.131 5.27545 106.869 5.27545 105.475 3.88072C104.514 2.92035 104.215 1.54912 104.577 0.332838Z" fill="white"/>
<path d="M76.9614 4.85094C78.0238 4.53048 79.0901 4.22686 80.16 3.94008C79.2797 4.78022 78.0757 5.08384 76.9614 4.85094Z" fill="white"/>
<path d="M139.039 209.992C137.976 210.312 136.91 210.616 135.84 210.903C136.72 210.062 137.924 209.759 139.039 209.992Z" fill="white"/>
<path d="M111.423 214.51C111.785 213.294 111.486 211.922 110.525 210.962C109.131 209.567 106.869 209.567 105.475 210.962C104.514 211.922 104.215 213.294 104.577 214.51C106.859 214.582 109.141 214.582 111.423 214.51Z" fill="white"/>
<path d="M80.16 210.903C79.2798 210.062 78.0757 209.759 76.9614 209.992C78.0238 210.312 79.0901 210.616 80.16 210.903Z" fill="white"/>
<path d="M5.42959 138.46C5.6625 137.346 5.35887 136.142 4.51873 135.261C4.8055 136.331 5.10913 137.398 5.42959 138.46Z" fill="white"/>
<path d="M0.911486 110.844C2.12777 111.206 3.49899 110.907 4.45937 109.947C5.85409 108.552 5.85409 106.291 4.45936 104.896C3.499 103.936 2.12777 103.637 0.911486 103.999C0.839028 106.28 0.839038 108.563 0.911486 110.844Z" fill="white"/>
<path d="M4.51873 79.5814C5.35886 78.7011 5.66249 77.4971 5.42959 76.3828C5.10912 77.4451 4.8055 78.5115 4.51873 79.5814Z" fill="white"/>
<path d="M155.982 19.033C154.588 20.4277 152.326 20.4277 150.931 19.033C149.537 17.6383 149.537 15.377 150.931 13.9822C152.326 12.5875 154.588 12.5875 155.982 13.9822C157.377 15.377 157.377 17.6383 155.982 19.033Z" fill="white"/>
<path d="M171.135 34.1853C169.74 35.58 167.478 35.58 166.084 34.1853C164.689 32.7906 164.689 30.5293 166.084 29.1345C167.479 27.7398 169.74 27.7398 171.135 29.1345C172.529 30.5293 172.529 32.7906 171.135 34.1853Z" fill="white"/>
<path d="M186.287 49.3376C184.892 50.7323 182.631 50.7323 181.236 49.3376C179.841 47.9429 179.841 45.6815 181.236 44.2868C182.631 42.8921 184.892 42.8921 186.287 44.2868C187.682 45.6815 187.682 47.9429 186.287 49.3376Z" fill="white"/>
<path d="M201.439 64.4899C200.044 65.8846 197.783 65.8846 196.388 64.4899C194.994 63.0951 194.994 60.8338 196.388 59.4391C197.783 58.0444 200.044 58.0444 201.439 59.4391C202.834 60.8338 202.834 63.0951 201.439 64.4899Z" fill="white"/>
<path d="M125.678 19.033C124.283 20.4277 122.022 20.4277 120.627 19.033C119.232 17.6383 119.232 15.377 120.627 13.9822C122.022 12.5875 124.283 12.5875 125.678 13.9822C127.072 15.377 127.072 17.6383 125.678 19.033Z" fill="white"/>
<path d="M140.83 34.1853C139.435 35.58 137.174 35.58 135.779 34.1853C134.384 32.7906 134.384 30.5293 135.779 29.1345C137.174 27.7398 139.435 27.7398 140.83 29.1345C142.225 30.5293 142.225 32.7906 140.83 34.1853Z" fill="white"/>
<path d="M155.982 49.3376C154.588 50.7323 152.326 50.7323 150.931 49.3376C149.537 47.9429 149.537 45.6816 150.931 44.2868C152.326 42.8921 154.588 42.8921 155.982 44.2868C157.377 45.6815 157.377 47.9429 155.982 49.3376Z" fill="white"/>
<path d="M171.135 64.4899C169.74 65.8846 167.478 65.8846 166.084 64.4899C164.689 63.0951 164.689 60.8338 166.084 59.4391C167.478 58.0444 169.74 58.0444 171.135 59.4391C172.529 60.8338 172.529 63.0951 171.135 64.4899Z" fill="white"/>
<path d="M186.287 79.6422C184.892 81.0369 182.631 81.0369 181.236 79.6422C179.841 78.2474 179.841 75.9861 181.236 74.5914C182.631 73.1967 184.892 73.1967 186.287 74.5914C187.682 75.9861 187.682 78.2474 186.287 79.6422Z" fill="white"/>
<path d="M201.439 94.7944C200.044 96.1892 197.783 96.1892 196.388 94.7944C194.994 93.3997 194.994 91.1384 196.388 89.7437C197.783 88.349 200.044 88.349 201.439 89.7437C202.834 91.1384 202.834 93.3997 201.439 94.7944Z" fill="white"/>
<path d="M95.3731 19.033C93.9784 20.4277 91.7171 20.4277 90.3223 19.033C88.9276 17.6383 88.9276 15.377 90.3223 13.9822C91.7171 12.5875 93.9784 12.5875 95.3731 13.9822C96.7678 15.377 96.7678 17.6383 95.3731 19.033Z" fill="white"/>
<path d="M110.525 34.1853C109.131 35.58 106.869 35.58 105.475 34.1853C104.08 32.7906 104.08 30.5293 105.475 29.1345C106.869 27.7398 109.131 27.7398 110.525 29.1345C111.92 30.5293 111.92 32.7906 110.525 34.1853Z" fill="white"/>
<path d="M125.678 49.3376C124.283 50.7323 122.022 50.7323 120.627 49.3376C119.232 47.9429 119.232 45.6815 120.627 44.2868C122.022 42.8921 124.283 42.8921 125.678 44.2868C127.072 45.6815 127.072 47.9429 125.678 49.3376Z" fill="white"/>
<path d="M140.83 64.4899C139.435 65.8846 137.174 65.8846 135.779 64.4899C134.384 63.0951 134.384 60.8338 135.779 59.4391C137.174 58.0444 139.435 58.0444 140.83 59.4391C142.225 60.8338 142.225 63.0951 140.83 64.4899Z" fill="white"/>
<path d="M155.982 79.6422C154.588 81.0369 152.326 81.0369 150.931 79.6422C149.537 78.2474 149.537 75.9861 150.931 74.5914C152.326 73.1967 154.588 73.1967 155.982 74.5914C157.377 75.9861 157.377 78.2474 155.982 79.6422Z" fill="white"/>
<path d="M171.135 94.7944C169.74 96.1892 167.478 96.1892 166.084 94.7944C164.689 93.3997 164.689 91.1384 166.084 89.7437C167.479 88.349 169.74 88.349 171.135 89.7437C172.529 91.1384 172.529 93.3997 171.135 94.7944Z" fill="white"/>
<path d="M186.287 109.947C184.892 111.341 182.631 111.341 181.236 109.947C179.841 108.552 179.841 106.291 181.236 104.896C182.631 103.501 184.892 103.501 186.287 104.896C187.682 106.291 187.682 108.552 186.287 109.947Z" fill="white"/>
<path d="M201.439 125.099C200.044 126.494 197.783 126.494 196.388 125.099C194.994 123.704 194.994 121.443 196.388 120.048C197.783 118.654 200.044 118.654 201.439 120.048C202.834 121.443 202.834 123.704 201.439 125.099Z" fill="white"/>
<path d="M65.0685 19.033C63.6738 20.4277 61.4125 20.4277 60.0178 19.033C58.623 17.6383 58.623 15.377 60.0178 13.9822C61.4125 12.5875 63.6738 12.5875 65.0685 13.9822C66.4632 15.377 66.4632 17.6383 65.0685 19.033Z" fill="white"/>
<path d="M80.2208 34.1853C78.8261 35.58 76.5648 35.58 75.17 34.1853C73.7753 32.7906 73.7753 30.5293 75.17 29.1345C76.5648 27.7398 78.8261 27.7398 80.2208 29.1345C81.6155 30.5293 81.6155 32.7906 80.2208 34.1853Z" fill="white"/>
<path d="M95.3731 49.3376C93.9784 50.7323 91.7171 50.7323 90.3223 49.3376C88.9276 47.9429 88.9276 45.6815 90.3223 44.2868C91.7171 42.8921 93.9784 42.8921 95.3731 44.2868C96.7678 45.6815 96.7678 47.9429 95.3731 49.3376Z" fill="white"/>
<path d="M110.525 64.4899C109.131 65.8846 106.869 65.8846 105.475 64.4899C104.08 63.0951 104.08 60.8338 105.475 59.4391C106.869 58.0444 109.131 58.0444 110.525 59.4391C111.92 60.8338 111.92 63.0951 110.525 64.4899Z" fill="white"/>
<path d="M125.678 79.6422C124.283 81.0369 122.022 81.0369 120.627 79.6422C119.232 78.2474 119.232 75.9861 120.627 74.5914C122.022 73.1967 124.283 73.1967 125.678 74.5914C127.072 75.9861 127.072 78.2474 125.678 79.6422Z" fill="white"/>
<path d="M140.83 94.7944C139.435 96.1892 137.174 96.1892 135.779 94.7944C134.384 93.3997 134.384 91.1384 135.779 89.7437C137.174 88.349 139.435 88.349 140.83 89.7437C142.225 91.1384 142.225 93.3997 140.83 94.7944Z" fill="white"/>
<path d="M155.982 109.947C154.588 111.341 152.326 111.341 150.931 109.947C149.537 108.552 149.537 106.291 150.931 104.896C152.326 103.501 154.588 103.501 155.982 104.896C157.377 106.291 157.377 108.552 155.982 109.947Z" fill="white"/>
<path d="M171.135 125.099C169.74 126.494 167.478 126.494 166.084 125.099C164.689 123.704 164.689 121.443 166.084 120.048C167.479 118.654 169.74 118.654 171.135 120.048C172.529 121.443 172.529 123.704 171.135 125.099Z" fill="white"/>
<path d="M186.287 140.251C184.892 141.646 182.631 141.646 181.236 140.251C179.841 138.857 179.841 136.595 181.236 135.201C182.631 133.806 184.892 133.806 186.287 135.201C187.682 136.595 187.682 138.857 186.287 140.251Z" fill="white"/>
<path d="M201.439 155.404C200.044 156.798 197.783 156.798 196.388 155.404C194.994 154.009 194.994 151.748 196.388 150.353C197.783 148.958 200.044 148.958 201.439 150.353C202.834 151.748 202.834 154.009 201.439 155.404Z" fill="white"/>
<path d="M49.9162 34.1853C48.5215 35.58 46.2602 35.58 44.8655 34.1853C43.4707 32.7906 43.4707 30.5293 44.8655 29.1345C46.2602 27.7398 48.5215 27.7398 49.9162 29.1345C51.311 30.5293 51.311 32.7906 49.9162 34.1853Z" fill="white"/>
<path d="M65.0685 49.3376C63.6738 50.7323 61.4125 50.7323 60.0178 49.3376C58.623 47.9429 58.623 45.6815 60.0178 44.2868C61.4125 42.8921 63.6738 42.8921 65.0685 44.2868C66.4632 45.6816 66.4632 47.9429 65.0685 49.3376Z" fill="white"/>
<path d="M80.2208 64.4899C78.8261 65.8846 76.5648 65.8846 75.17 64.4899C73.7753 63.0951 73.7753 60.8338 75.17 59.4391C76.5648 58.0444 78.8261 58.0444 80.2208 59.4391C81.6155 60.8338 81.6155 63.0951 80.2208 64.4899Z" fill="white"/>
<path d="M95.3731 79.6422C93.9784 81.0369 91.7171 81.0369 90.3223 79.6422C88.9276 78.2474 88.9276 75.9861 90.3223 74.5914C91.7171 73.1967 93.9784 73.1967 95.3731 74.5914C96.7678 75.9861 96.7678 78.2474 95.3731 79.6422Z" fill="white"/>
<path d="M110.525 94.7944C109.131 96.1892 106.869 96.1892 105.475 94.7944C104.08 93.3997 104.08 91.1384 105.475 89.7437C106.869 88.349 109.131 88.349 110.525 89.7437C111.92 91.1384 111.92 93.3997 110.525 94.7944Z" fill="white"/>
<path d="M125.678 109.947C124.283 111.341 122.022 111.341 120.627 109.947C119.232 108.552 119.232 106.291 120.627 104.896C122.022 103.501 124.283 103.501 125.678 104.896C127.072 106.291 127.072 108.552 125.678 109.947Z" fill="white"/>
<path d="M140.83 125.099C139.435 126.494 137.174 126.494 135.779 125.099C134.384 123.704 134.384 121.443 135.779 120.048C137.174 118.654 139.435 118.654 140.83 120.048C142.225 121.443 142.225 123.704 140.83 125.099Z" fill="white"/>
<path d="M155.982 140.251C154.588 141.646 152.326 141.646 150.931 140.251C149.537 138.857 149.537 136.595 150.931 135.201C152.326 133.806 154.588 133.806 155.982 135.201C157.377 136.595 157.377 138.857 155.982 140.251Z" fill="white"/>
<path d="M171.135 155.404C169.74 156.798 167.479 156.798 166.084 155.404C164.689 154.009 164.689 151.748 166.084 150.353C167.479 148.958 169.74 148.958 171.135 150.353C172.529 151.748 172.529 154.009 171.135 155.404Z" fill="white"/>
<path d="M186.287 170.556C184.892 171.951 182.631 171.951 181.236 170.556C179.841 169.161 179.841 166.9 181.236 165.505C182.631 164.11 184.892 164.11 186.287 165.505C187.682 166.9 187.682 169.161 186.287 170.556Z" fill="white"/>
<path d="M34.7639 49.3376C33.3692 50.7323 31.1079 50.7323 29.7132 49.3376C28.3185 47.9429 28.3185 45.6815 29.7132 44.2868C31.1079 42.8921 33.3692 42.8921 34.7639 44.2868C36.1587 45.6815 36.1587 47.9429 34.7639 49.3376Z" fill="white"/>
<path d="M49.9162 64.4899C48.5215 65.8846 46.2602 65.8846 44.8655 64.4899C43.4707 63.0951 43.4707 60.8338 44.8655 59.4391C46.2602 58.0444 48.5215 58.0444 49.9162 59.4391C51.311 60.8338 51.311 63.0951 49.9162 64.4899Z" fill="white"/>
<path d="M65.0685 79.6422C63.6738 81.0369 61.4125 81.0369 60.0178 79.6422C58.623 78.2474 58.623 75.9861 60.0178 74.5914C61.4125 73.1967 63.6738 73.1967 65.0685 74.5914C66.4632 75.9861 66.4632 78.2474 65.0685 79.6422Z" fill="white"/>
<path d="M80.2208 94.7944C78.8261 96.1892 76.5648 96.1892 75.17 94.7944C73.7753 93.3997 73.7753 91.1384 75.17 89.7437C76.5648 88.349 78.8261 88.349 80.2208 89.7437C81.6155 91.1384 81.6155 93.3997 80.2208 94.7944Z" fill="white"/>
<path d="M95.3731 109.947C93.9784 111.341 91.7171 111.341 90.3223 109.947C88.9276 108.552 88.9276 106.291 90.3223 104.896C91.7171 103.501 93.9784 103.501 95.3731 104.896C96.7678 106.291 96.7678 108.552 95.3731 109.947Z" fill="white"/>
<path d="M110.525 125.099C109.131 126.494 106.869 126.494 105.475 125.099C104.08 123.704 104.08 121.443 105.475 120.048C106.869 118.654 109.131 118.654 110.525 120.048C111.92 121.443 111.92 123.704 110.525 125.099Z" fill="white"/>
<path d="M125.678 140.251C124.283 141.646 122.022 141.646 120.627 140.251C119.232 138.857 119.232 136.595 120.627 135.201C122.022 133.806 124.283 133.806 125.678 135.201C127.072 136.595 127.072 138.857 125.678 140.251Z" fill="white"/>
<path d="M140.83 155.404C139.435 156.798 137.174 156.798 135.779 155.404C134.384 154.009 134.384 151.748 135.779 150.353C137.174 148.958 139.435 148.958 140.83 150.353C142.225 151.748 142.225 154.009 140.83 155.404Z" fill="white"/>
<path d="M155.982 170.556C154.588 171.951 152.326 171.951 150.931 170.556C149.537 169.161 149.537 166.9 150.931 165.505C152.326 164.11 154.588 164.11 155.982 165.505C157.377 166.9 157.377 169.161 155.982 170.556Z" fill="white"/>
<path d="M171.135 185.708C169.74 187.103 167.479 187.103 166.084 185.708C164.689 184.313 164.689 182.052 166.084 180.657C167.479 179.263 169.74 179.263 171.135 180.657C172.529 182.052 172.529 184.313 171.135 185.708Z" fill="white"/>
<path d="M19.6117 64.4899C18.2169 65.8846 15.9556 65.8846 14.5609 64.4899C13.1662 63.0951 13.1662 60.8338 14.5609 59.4391C15.9556 58.0444 18.2169 58.0444 19.6117 59.4391C21.0064 60.8338 21.0064 63.0951 19.6117 64.4899Z" fill="white"/>
<path d="M34.7639 79.6422C33.3692 81.0369 31.1079 81.0369 29.7132 79.6422C28.3185 78.2474 28.3185 75.9861 29.7132 74.5914C31.1079 73.1967 33.3692 73.1967 34.7639 74.5914C36.1587 75.9861 36.1587 78.2474 34.7639 79.6422Z" fill="white"/>
<path d="M49.9162 94.7944C48.5215 96.1892 46.2602 96.1892 44.8655 94.7944C43.4707 93.3997 43.4707 91.1384 44.8655 89.7437C46.2602 88.349 48.5215 88.349 49.9162 89.7437C51.311 91.1384 51.311 93.3997 49.9162 94.7944Z" fill="white"/>
<path d="M65.0685 109.947C63.6738 111.341 61.4125 111.341 60.0178 109.947C58.623 108.552 58.623 106.291 60.0178 104.896C61.4125 103.501 63.6738 103.501 65.0685 104.896C66.4632 106.291 66.4632 108.552 65.0685 109.947Z" fill="white"/>
<path d="M80.2208 125.099C78.8261 126.494 76.5648 126.494 75.17 125.099C73.7753 123.704 73.7753 121.443 75.17 120.048C76.5648 118.654 78.8261 118.654 80.2208 120.048C81.6155 121.443 81.6155 123.704 80.2208 125.099Z" fill="white"/>
<path d="M95.3731 140.251C93.9784 141.646 91.7171 141.646 90.3223 140.251C88.9276 138.857 88.9276 136.595 90.3223 135.201C91.7171 133.806 93.9784 133.806 95.3731 135.201C96.7678 136.595 96.7678 138.857 95.3731 140.251Z" fill="white"/>
<path d="M110.525 155.404C109.131 156.798 106.869 156.798 105.475 155.404C104.08 154.009 104.08 151.748 105.475 150.353C106.869 148.958 109.131 148.958 110.525 150.353C111.92 151.748 111.92 154.009 110.525 155.404Z" fill="white"/>
<path d="M125.678 170.556C124.283 171.951 122.022 171.951 120.627 170.556C119.232 169.161 119.232 166.9 120.627 165.505C122.022 164.11 124.283 164.11 125.678 165.505C127.072 166.9 127.072 169.161 125.678 170.556Z" fill="white"/>
<path d="M140.83 185.708C139.435 187.103 137.174 187.103 135.779 185.708C134.384 184.313 134.384 182.052 135.779 180.657C137.174 179.263 139.435 179.263 140.83 180.657C142.225 182.052 142.225 184.313 140.83 185.708Z" fill="white"/>
<path d="M155.982 200.86C154.588 202.255 152.326 202.255 150.931 200.86C149.537 199.466 149.537 197.204 150.931 195.81C152.326 194.415 154.588 194.415 155.982 195.81C157.377 197.204 157.377 199.466 155.982 200.86Z" fill="white"/>
<path d="M19.6117 94.7944C18.2169 96.1892 15.9556 96.1892 14.5609 94.7944C13.1662 93.3997 13.1662 91.1384 14.5609 89.7437C15.9556 88.349 18.2169 88.349 19.6117 89.7437C21.0064 91.1384 21.0064 93.3997 19.6117 94.7944Z" fill="white"/>
<path d="M34.7639 109.947C33.3692 111.341 31.1079 111.341 29.7132 109.947C28.3185 108.552 28.3185 106.291 29.7132 104.896C31.1079 103.501 33.3692 103.501 34.7639 104.896C36.1587 106.291 36.1587 108.552 34.7639 109.947Z" fill="white"/>
<path d="M49.9162 125.099C48.5215 126.494 46.2602 126.494 44.8655 125.099C43.4707 123.704 43.4707 121.443 44.8655 120.048C46.2602 118.654 48.5215 118.654 49.9162 120.048C51.311 121.443 51.311 123.704 49.9162 125.099Z" fill="white"/>
<path d="M65.0685 140.251C63.6738 141.646 61.4125 141.646 60.0178 140.251C58.623 138.857 58.623 136.595 60.0178 135.201C61.4125 133.806 63.6738 133.806 65.0685 135.201C66.4632 136.595 66.4632 138.857 65.0685 140.251Z" fill="white"/>
<path d="M80.2208 155.404C78.8261 156.798 76.5648 156.798 75.17 155.404C73.7753 154.009 73.7753 151.748 75.17 150.353C76.5648 148.958 78.8261 148.958 80.2208 150.353C81.6155 151.748 81.6155 154.009 80.2208 155.404Z" fill="white"/>
<path d="M95.3731 170.556C93.9784 171.951 91.7171 171.951 90.3223 170.556C88.9276 169.161 88.9276 166.9 90.3223 165.505C91.7171 164.11 93.9784 164.11 95.3731 165.505C96.7678 166.9 96.7678 169.161 95.3731 170.556Z" fill="white"/>
<path d="M110.525 185.708C109.131 187.103 106.869 187.103 105.475 185.708C104.08 184.313 104.08 182.052 105.475 180.657C106.869 179.263 109.131 179.263 110.525 180.657C111.92 182.052 111.92 184.313 110.525 185.708Z" fill="white"/>
<path d="M125.678 200.86C124.283 202.255 122.022 202.255 120.627 200.86C119.232 199.466 119.232 197.204 120.627 195.81C122.022 194.415 124.283 194.415 125.678 195.81C127.072 197.204 127.072 199.466 125.678 200.86Z" fill="white"/>
<path d="M19.6117 125.099C18.2169 126.494 15.9556 126.494 14.5609 125.099C13.1662 123.704 13.1662 121.443 14.5609 120.048C15.9556 118.654 18.2169 118.654 19.6117 120.048C21.0064 121.443 21.0064 123.704 19.6117 125.099Z" fill="white"/>
<path d="M34.7639 140.251C33.3692 141.646 31.1079 141.646 29.7132 140.251C28.3185 138.857 28.3185 136.595 29.7132 135.201C31.1079 133.806 33.3692 133.806 34.7639 135.201C36.1587 136.595 36.1587 138.857 34.7639 140.251Z" fill="white"/>
<path d="M49.9162 155.404C48.5215 156.798 46.2602 156.798 44.8655 155.404C43.4707 154.009 43.4707 151.748 44.8655 150.353C46.2602 148.958 48.5215 148.958 49.9162 150.353C51.311 151.748 51.311 154.009 49.9162 155.404Z" fill="white"/>
<path d="M65.0685 170.556C63.6738 171.951 61.4125 171.951 60.0178 170.556C58.623 169.161 58.623 166.9 60.0178 165.505C61.4125 164.11 63.6738 164.11 65.0685 165.505C66.4632 166.9 66.4632 169.161 65.0685 170.556Z" fill="white"/>
<path d="M80.2208 185.708C78.8261 187.103 76.5648 187.103 75.17 185.708C73.7753 184.313 73.7753 182.052 75.17 180.657C76.5648 179.263 78.8261 179.263 80.2208 180.657C81.6155 182.052 81.6155 184.313 80.2208 185.708Z" fill="white"/>
<path d="M95.3731 200.86C93.9784 202.255 91.7171 202.255 90.3223 200.86C88.9276 199.466 88.9276 197.204 90.3223 195.81C91.7171 194.415 93.9784 194.415 95.3731 195.81C96.7678 197.204 96.7678 199.466 95.3731 200.86Z" fill="white"/>
<path d="M19.6117 155.404C18.2169 156.798 15.9556 156.798 14.5609 155.404C13.1662 154.009 13.1662 151.748 14.5609 150.353C15.9556 148.958 18.2169 148.958 19.6116 150.353C21.0064 151.748 21.0064 154.009 19.6117 155.404Z" fill="white"/>
<path d="M34.7639 170.556C33.3692 171.951 31.1079 171.951 29.7132 170.556C28.3185 169.161 28.3185 166.9 29.7132 165.505C31.1079 164.11 33.3692 164.11 34.7639 165.505C36.1587 166.9 36.1587 169.161 34.7639 170.556Z" fill="white"/>
<path d="M49.9162 185.708C48.5215 187.103 46.2602 187.103 44.8655 185.708C43.4707 184.313 43.4707 182.052 44.8655 180.657C46.2602 179.263 48.5215 179.263 49.9162 180.657C51.311 182.052 51.311 184.313 49.9162 185.708Z" fill="white"/>
<path d="M65.0685 200.86C63.6738 202.255 61.4125 202.255 60.0178 200.86C58.623 199.466 58.623 197.204 60.0178 195.81C61.4125 194.415 63.6738 194.415 65.0685 195.81C66.4632 197.204 66.4632 199.466 65.0685 200.86Z" fill="white"/>
</g>
</svg>
