<?xml version="1.0"?>
<svg xmlns="http://www.w3.org/2000/svg" xmlns:xlink="http://www.w3.org/1999/xlink" xmlns:svgjs="http://svgjs.com/svgjs" version="1.1" width="512" height="512" x="0" y="0" viewBox="0 0 24 24" style="enable-background:new 0 0 512 512" xml:space="preserve"><g><path xmlns="http://www.w3.org/2000/svg" d="M19,0H5A5.006,5.006,0,0,0,0,5V19a5.006,5.006,0,0,0,5,5V21a7,7,0,0,1,14,0v3a5.006,5.006,0,0,0,5-5V5A5.006,5.006,0,0,0,19,0ZM12,12a4,4,0,1,1,4-4A4,4,0,0,1,12,12Z" fill="#bdbdbd" data-original="#000000"/><circle xmlns="http://www.w3.org/2000/svg" cx="12" cy="8" r="2" fill="#bdbdbd" data-original="#000000"/><path xmlns="http://www.w3.org/2000/svg" d="M12,16a5.006,5.006,0,0,0-5,5v3H17V21A5.006,5.006,0,0,0,12,16Z" fill="#bdbdbd" data-original="#000000"/></g></svg>
