<svg width="32" height="32" viewBox="0 0 32 32" fill="none" xmlns="http://www.w3.org/2000/svg">
<path d="M15.3333 27.9998C22.3289 27.9998 28 22.3288 28 15.3332C28 8.33756 22.3289 2.6665 15.3333 2.6665C8.33768 2.6665 2.66663 8.33756 2.66663 15.3332C2.66663 22.3288 8.33768 27.9998 15.3333 27.9998Z" fill="#BDBDBD"/>
<path d="M28.4006 29.3313C28.1606 29.3313 27.9206 29.238 27.7473 29.0646L25.2673 26.5846C24.9073 26.2246 24.9073 25.638 25.2673 25.2646C25.6273 24.9046 26.214 24.9046 26.5873 25.2646L29.0673 27.7446C29.4273 28.1046 29.4273 28.6913 29.0673 29.0646C28.8806 29.238 28.6406 29.3313 28.4006 29.3313Z" fill="#757575"/>
</svg>
