<svg width="28" height="28" viewBox="0 0 28 28" fill="none" xmlns="http://www.w3.org/2000/svg">
<path d="M18.6526 14.9356V14.0023C18.6526 12.469 17.3993 11.2157 15.8659 11.2157H14.9326V14.9356H18.6526Z" fill="#BDBDBD"/>
<path d="M13.0659 11.2157H12.1326C10.5992 11.2157 9.34592 12.469 9.34592 14.0023V14.9356H13.0659V11.2157Z" fill="#BDBDBD"/>
<path d="M9.34592 16.789V17.7223C9.34592 19.2556 10.5992 20.509 12.1326 20.509H13.0659V16.789H9.34592Z" fill="#BDBDBD"/>
<path d="M14.9326 20.509H15.8659C17.3993 20.509 18.6526 19.2556 18.6526 17.7223V16.789H14.9326V20.509Z" fill="#BDBDBD"/>
<path fill-rule="evenodd" clip-rule="evenodd" d="M17.0401 1.7222L24.7067 7.09553C26.1734 8.1222 27.3334 10.3355 27.3201 12.1355V21.1755C27.3201 24.5755 24.5601 27.3355 21.1734 27.3355H6.81342C3.42675 27.3355 0.666748 24.5621 0.666748 21.1621V11.9621C0.666748 10.2822 1.70675 8.14886 3.05341 7.10886L9.73342 1.89553C11.7467 0.335529 14.9467 0.255529 17.0401 1.7222ZM12.1326 9.349H15.8659C18.4259 9.349 20.5059 11.4423 20.5059 14.0023V17.7223C20.5059 20.2956 18.4126 22.3756 15.8526 22.3756H12.1326C9.57258 22.3756 7.47925 20.2823 7.47925 17.7223V14.0023C7.47925 11.429 9.57258 9.349 12.1326 9.349Z" fill="#BDBDBD"/>
</svg>
