<svg width="360" height="208" viewBox="0 0 360 208" fill="none" xmlns="http://www.w3.org/2000/svg">
<mask id="mask0_728_10346" style="mask-type:alpha" maskUnits="userSpaceOnUse" x="0" y="0" width="360" height="208">
<path d="M0 0H360V188.954C360 188.954 283.5 208 184 208C84.5 208 0 188.954 0 188.954V0Z" fill="#2962FF"/>
</mask>
<g mask="url(#mask0_728_10346)">
<path d="M0 0H360V188.954C360 188.954 283.5 208 184 208C84.5 208 0 188.954 0 188.954V0Z" fill="#2962FF"/>
<g opacity="0.5">
<path d="M283.481 156.261C283.195 157.331 282.891 158.398 282.57 159.46C282.338 158.346 282.641 157.142 283.481 156.261Z" fill="white"/>
<path d="M287.089 124.999C287.161 127.28 287.161 129.563 287.089 131.844C285.872 132.206 284.501 131.907 283.541 130.947C282.146 129.552 282.146 127.291 283.541 125.896C284.501 124.936 285.872 124.637 287.089 124.999Z" fill="white"/>
<path d="M282.57 97.3828C282.891 98.4451 283.195 99.5115 283.481 100.581C282.641 99.7011 282.338 98.4971 282.57 97.3828Z" fill="white"/>
<path d="M207.84 24.9401C208.91 25.2269 209.976 25.5305 211.039 25.8509C209.924 26.0838 208.72 25.7802 207.84 24.9401Z" fill="white"/>
<path d="M176.577 21.3328C178.858 21.2604 181.142 21.2604 183.423 21.3328C183.785 22.5491 183.486 23.9204 182.525 24.8807C181.131 26.2754 178.869 26.2754 177.475 24.8807C176.514 23.9204 176.215 22.5491 176.577 21.3328Z" fill="white"/>
<path d="M148.961 25.8509C150.024 25.5305 151.09 25.2269 152.16 24.9401C151.28 25.7802 150.076 26.0838 148.961 25.8509Z" fill="white"/>
<path d="M211.039 230.992C209.976 231.312 208.91 231.616 207.84 231.903C208.72 231.062 209.924 230.759 211.039 230.992Z" fill="white"/>
<path d="M183.423 235.51C183.785 234.294 183.486 232.922 182.525 231.962C181.131 230.567 178.869 230.567 177.475 231.962C176.514 232.922 176.215 234.294 176.577 235.51C178.859 235.582 181.141 235.582 183.423 235.51Z" fill="white"/>
<path d="M152.16 231.903C151.28 231.062 150.076 230.759 148.961 230.992C150.024 231.312 151.09 231.616 152.16 231.903Z" fill="white"/>
<path d="M77.4296 159.46C77.6625 158.346 77.3589 157.142 76.5187 156.261C76.8055 157.331 77.1091 158.398 77.4296 159.46Z" fill="white"/>
<path d="M72.9115 131.844C74.1278 132.206 75.499 131.907 76.4594 130.947C77.8541 129.552 77.8541 127.291 76.4594 125.896C75.499 124.936 74.1278 124.637 72.9115 124.999C72.839 127.28 72.839 129.563 72.9115 131.844Z" fill="white"/>
<path d="M76.5187 100.581C77.3589 99.7011 77.6625 98.4971 77.4296 97.3828C77.1091 98.4451 76.8055 99.5115 76.5187 100.581Z" fill="white"/>
<path d="M227.982 40.033C226.588 41.4277 224.326 41.4277 222.931 40.033C221.537 38.6383 221.537 36.377 222.931 34.9822C224.326 33.5875 226.588 33.5875 227.982 34.9822C229.377 36.377 229.377 38.6383 227.982 40.033Z" fill="white"/>
<path d="M243.135 55.1853C241.74 56.58 239.478 56.58 238.084 55.1853C236.689 53.7906 236.689 51.5293 238.084 50.1345C239.479 48.7398 241.74 48.7398 243.135 50.1345C244.529 51.5293 244.529 53.7906 243.135 55.1853Z" fill="white"/>
<path d="M258.287 70.3376C256.892 71.7323 254.631 71.7323 253.236 70.3376C251.841 68.9429 251.841 66.6815 253.236 65.2868C254.631 63.8921 256.892 63.8921 258.287 65.2868C259.682 66.6815 259.682 68.9429 258.287 70.3376Z" fill="white"/>
<path d="M273.439 85.4899C272.044 86.8846 269.783 86.8846 268.388 85.4899C266.994 84.0951 266.994 81.8338 268.388 80.4391C269.783 79.0444 272.044 79.0444 273.439 80.4391C274.834 81.8338 274.834 84.0951 273.439 85.4899Z" fill="white"/>
<path d="M197.678 40.033C196.283 41.4277 194.022 41.4277 192.627 40.033C191.232 38.6383 191.232 36.377 192.627 34.9822C194.022 33.5875 196.283 33.5875 197.678 34.9822C199.072 36.377 199.072 38.6383 197.678 40.033Z" fill="white"/>
<path d="M212.83 55.1853C211.435 56.58 209.174 56.58 207.779 55.1853C206.384 53.7906 206.384 51.5293 207.779 50.1345C209.174 48.7398 211.435 48.7398 212.83 50.1345C214.225 51.5293 214.225 53.7906 212.83 55.1853Z" fill="white"/>
<path d="M227.982 70.3376C226.588 71.7323 224.326 71.7323 222.931 70.3376C221.537 68.9429 221.537 66.6816 222.931 65.2868C224.326 63.8921 226.588 63.8921 227.982 65.2868C229.377 66.6815 229.377 68.9429 227.982 70.3376Z" fill="white"/>
<path d="M243.135 85.4899C241.74 86.8846 239.478 86.8846 238.084 85.4899C236.689 84.0951 236.689 81.8338 238.084 80.4391C239.478 79.0444 241.74 79.0444 243.135 80.4391C244.529 81.8338 244.529 84.0951 243.135 85.4899Z" fill="white"/>
<path d="M258.287 100.642C256.892 102.037 254.631 102.037 253.236 100.642C251.841 99.2474 251.841 96.9861 253.236 95.5914C254.631 94.1967 256.892 94.1967 258.287 95.5914C259.682 96.9861 259.682 99.2474 258.287 100.642Z" fill="white"/>
<path d="M273.439 115.794C272.044 117.189 269.783 117.189 268.388 115.794C266.994 114.4 266.994 112.138 268.388 110.744C269.783 109.349 272.044 109.349 273.439 110.744C274.834 112.138 274.834 114.4 273.439 115.794Z" fill="white"/>
<path d="M167.373 40.033C165.978 41.4277 163.717 41.4277 162.322 40.033C160.928 38.6383 160.928 36.377 162.322 34.9822C163.717 33.5875 165.978 33.5875 167.373 34.9822C168.768 36.377 168.768 38.6383 167.373 40.033Z" fill="white"/>
<path d="M182.525 55.1853C181.131 56.58 178.869 56.58 177.475 55.1853C176.08 53.7906 176.08 51.5293 177.475 50.1345C178.869 48.7398 181.131 48.7398 182.525 50.1345C183.92 51.5293 183.92 53.7906 182.525 55.1853Z" fill="white"/>
<path d="M197.678 70.3376C196.283 71.7323 194.022 71.7323 192.627 70.3376C191.232 68.9429 191.232 66.6815 192.627 65.2868C194.022 63.8921 196.283 63.8921 197.678 65.2868C199.072 66.6815 199.072 68.9429 197.678 70.3376Z" fill="white"/>
<path d="M212.83 85.4899C211.435 86.8846 209.174 86.8846 207.779 85.4899C206.384 84.0951 206.384 81.8338 207.779 80.4391C209.174 79.0444 211.435 79.0444 212.83 80.4391C214.225 81.8338 214.225 84.0951 212.83 85.4899Z" fill="white"/>
<path d="M227.982 100.642C226.588 102.037 224.326 102.037 222.931 100.642C221.537 99.2474 221.537 96.9861 222.931 95.5914C224.326 94.1967 226.588 94.1967 227.982 95.5914C229.377 96.9861 229.377 99.2474 227.982 100.642Z" fill="white"/>
<path d="M243.135 115.794C241.74 117.189 239.478 117.189 238.084 115.794C236.689 114.4 236.689 112.138 238.084 110.744C239.479 109.349 241.74 109.349 243.135 110.744C244.529 112.138 244.529 114.4 243.135 115.794Z" fill="white"/>
<path d="M258.287 130.947C256.892 132.341 254.631 132.341 253.236 130.947C251.841 129.552 251.841 127.291 253.236 125.896C254.631 124.501 256.892 124.501 258.287 125.896C259.682 127.291 259.682 129.552 258.287 130.947Z" fill="white"/>
<path d="M273.439 146.099C272.044 147.494 269.783 147.494 268.388 146.099C266.994 144.704 266.994 142.443 268.388 141.048C269.783 139.654 272.044 139.654 273.439 141.048C274.834 142.443 274.834 144.704 273.439 146.099Z" fill="white"/>
<path d="M137.069 40.033C135.674 41.4277 133.412 41.4277 132.018 40.033C130.623 38.6383 130.623 36.377 132.018 34.9822C133.412 33.5875 135.674 33.5875 137.069 34.9822C138.463 36.377 138.463 38.6383 137.069 40.033Z" fill="white"/>
<path d="M152.221 55.1853C150.826 56.58 148.565 56.58 147.17 55.1853C145.775 53.7906 145.775 51.5293 147.17 50.1345C148.565 48.7398 150.826 48.7398 152.221 50.1345C153.616 51.5293 153.616 53.7906 152.221 55.1853Z" fill="white"/>
<path d="M167.373 70.3376C165.978 71.7323 163.717 71.7323 162.322 70.3376C160.928 68.9429 160.928 66.6815 162.322 65.2868C163.717 63.8921 165.978 63.8921 167.373 65.2868C168.768 66.6815 168.768 68.9429 167.373 70.3376Z" fill="white"/>
<path d="M182.525 85.4899C181.131 86.8846 178.869 86.8846 177.475 85.4899C176.08 84.0951 176.08 81.8338 177.475 80.4391C178.869 79.0444 181.131 79.0444 182.525 80.4391C183.92 81.8338 183.92 84.0951 182.525 85.4899Z" fill="white"/>
<path d="M197.678 100.642C196.283 102.037 194.022 102.037 192.627 100.642C191.232 99.2474 191.232 96.9861 192.627 95.5914C194.022 94.1967 196.283 94.1967 197.678 95.5914C199.072 96.9861 199.072 99.2474 197.678 100.642Z" fill="white"/>
<path d="M212.83 115.794C211.435 117.189 209.174 117.189 207.779 115.794C206.384 114.4 206.384 112.138 207.779 110.744C209.174 109.349 211.435 109.349 212.83 110.744C214.225 112.138 214.225 114.4 212.83 115.794Z" fill="white"/>
<path d="M227.982 130.947C226.588 132.341 224.326 132.341 222.931 130.947C221.537 129.552 221.537 127.291 222.931 125.896C224.326 124.501 226.588 124.501 227.982 125.896C229.377 127.291 229.377 129.552 227.982 130.947Z" fill="white"/>
<path d="M243.135 146.099C241.74 147.494 239.478 147.494 238.084 146.099C236.689 144.704 236.689 142.443 238.084 141.048C239.479 139.654 241.74 139.654 243.135 141.048C244.529 142.443 244.529 144.704 243.135 146.099Z" fill="white"/>
<path d="M258.287 161.251C256.892 162.646 254.631 162.646 253.236 161.251C251.841 159.857 251.841 157.595 253.236 156.201C254.631 154.806 256.892 154.806 258.287 156.201C259.682 157.595 259.682 159.857 258.287 161.251Z" fill="white"/>
<path d="M273.439 176.404C272.044 177.798 269.783 177.798 268.388 176.404C266.994 175.009 266.994 172.748 268.388 171.353C269.783 169.958 272.044 169.958 273.439 171.353C274.834 172.748 274.834 175.009 273.439 176.404Z" fill="white"/>
<path d="M121.916 55.1853C120.522 56.58 118.26 56.58 116.865 55.1853C115.471 53.7906 115.471 51.5293 116.865 50.1345C118.26 48.7398 120.521 48.7398 121.916 50.1345C123.311 51.5293 123.311 53.7906 121.916 55.1853Z" fill="white"/>
<path d="M137.069 70.3376C135.674 71.7323 133.412 71.7323 132.018 70.3376C130.623 68.9429 130.623 66.6815 132.018 65.2868C133.412 63.8921 135.674 63.8921 137.069 65.2868C138.463 66.6816 138.463 68.9429 137.069 70.3376Z" fill="white"/>
<path d="M152.221 85.4899C150.826 86.8846 148.565 86.8846 147.17 85.4899C145.775 84.0951 145.775 81.8338 147.17 80.4391C148.565 79.0444 150.826 79.0444 152.221 80.4391C153.616 81.8338 153.616 84.0951 152.221 85.4899Z" fill="white"/>
<path d="M167.373 100.642C165.978 102.037 163.717 102.037 162.322 100.642C160.928 99.2474 160.928 96.9861 162.322 95.5914C163.717 94.1967 165.978 94.1967 167.373 95.5914C168.768 96.9861 168.768 99.2474 167.373 100.642Z" fill="white"/>
<path d="M182.525 115.794C181.131 117.189 178.869 117.189 177.475 115.794C176.08 114.4 176.08 112.138 177.475 110.744C178.869 109.349 181.131 109.349 182.525 110.744C183.92 112.138 183.92 114.4 182.525 115.794Z" fill="white"/>
<path d="M197.678 130.947C196.283 132.341 194.022 132.341 192.627 130.947C191.232 129.552 191.232 127.291 192.627 125.896C194.022 124.501 196.283 124.501 197.678 125.896C199.072 127.291 199.072 129.552 197.678 130.947Z" fill="white"/>
<path d="M212.83 146.099C211.435 147.494 209.174 147.494 207.779 146.099C206.384 144.704 206.384 142.443 207.779 141.048C209.174 139.654 211.435 139.654 212.83 141.048C214.225 142.443 214.225 144.704 212.83 146.099Z" fill="white"/>
<path d="M227.982 161.251C226.588 162.646 224.326 162.646 222.931 161.251C221.537 159.857 221.537 157.595 222.931 156.201C224.326 154.806 226.588 154.806 227.982 156.201C229.377 157.595 229.377 159.857 227.982 161.251Z" fill="white"/>
<path d="M243.135 176.404C241.74 177.798 239.479 177.798 238.084 176.404C236.689 175.009 236.689 172.748 238.084 171.353C239.479 169.958 241.74 169.958 243.135 171.353C244.529 172.748 244.529 175.009 243.135 176.404Z" fill="white"/>
<path d="M258.287 191.556C256.892 192.951 254.631 192.951 253.236 191.556C251.841 190.161 251.841 187.9 253.236 186.505C254.631 185.11 256.892 185.11 258.287 186.505C259.682 187.9 259.682 190.161 258.287 191.556Z" fill="white"/>
<path d="M106.764 70.3376C105.369 71.7323 103.108 71.7323 101.713 70.3376C100.318 68.9429 100.318 66.6815 101.713 65.2868C103.108 63.8921 105.369 63.8921 106.764 65.2868C108.159 66.6815 108.159 68.9429 106.764 70.3376Z" fill="white"/>
<path d="M121.916 85.4899C120.522 86.8846 118.26 86.8846 116.865 85.4899C115.471 84.0951 115.471 81.8338 116.865 80.4391C118.26 79.0444 120.522 79.0444 121.916 80.4391C123.311 81.8338 123.311 84.0951 121.916 85.4899Z" fill="white"/>
<path d="M137.069 100.642C135.674 102.037 133.412 102.037 132.018 100.642C130.623 99.2474 130.623 96.9861 132.018 95.5914C133.412 94.1967 135.674 94.1967 137.069 95.5914C138.463 96.9861 138.463 99.2474 137.069 100.642Z" fill="white"/>
<path d="M152.221 115.794C150.826 117.189 148.565 117.189 147.17 115.794C145.775 114.4 145.775 112.138 147.17 110.744C148.565 109.349 150.826 109.349 152.221 110.744C153.616 112.138 153.616 114.4 152.221 115.794Z" fill="white"/>
<path d="M167.373 130.947C165.978 132.341 163.717 132.341 162.322 130.947C160.928 129.552 160.928 127.291 162.322 125.896C163.717 124.501 165.978 124.501 167.373 125.896C168.768 127.291 168.768 129.552 167.373 130.947Z" fill="white"/>
<path d="M182.525 146.099C181.131 147.494 178.869 147.494 177.475 146.099C176.08 144.704 176.08 142.443 177.475 141.048C178.869 139.654 181.131 139.654 182.525 141.048C183.92 142.443 183.92 144.704 182.525 146.099Z" fill="white"/>
<path d="M197.678 161.251C196.283 162.646 194.022 162.646 192.627 161.251C191.232 159.857 191.232 157.595 192.627 156.201C194.022 154.806 196.283 154.806 197.678 156.201C199.072 157.595 199.072 159.857 197.678 161.251Z" fill="white"/>
<path d="M212.83 176.404C211.435 177.798 209.174 177.798 207.779 176.404C206.384 175.009 206.384 172.748 207.779 171.353C209.174 169.958 211.435 169.958 212.83 171.353C214.225 172.748 214.225 175.009 212.83 176.404Z" fill="white"/>
<path d="M227.982 191.556C226.588 192.951 224.326 192.951 222.931 191.556C221.537 190.161 221.537 187.9 222.931 186.505C224.326 185.11 226.588 185.11 227.982 186.505C229.377 187.9 229.377 190.161 227.982 191.556Z" fill="white"/>
<path d="M243.135 206.708C241.74 208.103 239.479 208.103 238.084 206.708C236.689 205.313 236.689 203.052 238.084 201.657C239.479 200.263 241.74 200.263 243.135 201.657C244.529 203.052 244.529 205.313 243.135 206.708Z" fill="white"/>
<path d="M91.6117 85.4899C90.2169 86.8846 87.9556 86.8846 86.5609 85.4899C85.1662 84.0951 85.1662 81.8338 86.5609 80.4391C87.9556 79.0444 90.2169 79.0444 91.6117 80.4391C93.0064 81.8338 93.0064 84.0951 91.6117 85.4899Z" fill="white"/>
<path d="M106.764 100.642C105.369 102.037 103.108 102.037 101.713 100.642C100.318 99.2474 100.318 96.9861 101.713 95.5914C103.108 94.1967 105.369 94.1967 106.764 95.5914C108.159 96.9861 108.159 99.2474 106.764 100.642Z" fill="white"/>
<path d="M121.916 115.794C120.522 117.189 118.26 117.189 116.865 115.794C115.471 114.4 115.471 112.138 116.865 110.744C118.26 109.349 120.521 109.349 121.916 110.744C123.311 112.138 123.311 114.4 121.916 115.794Z" fill="white"/>
<path d="M137.069 130.947C135.674 132.341 133.412 132.341 132.018 130.947C130.623 129.552 130.623 127.291 132.018 125.896C133.412 124.501 135.674 124.501 137.069 125.896C138.463 127.291 138.463 129.552 137.069 130.947Z" fill="white"/>
<path d="M152.221 146.099C150.826 147.494 148.565 147.494 147.17 146.099C145.775 144.704 145.775 142.443 147.17 141.048C148.565 139.654 150.826 139.654 152.221 141.048C153.616 142.443 153.616 144.704 152.221 146.099Z" fill="white"/>
<path d="M167.373 161.251C165.978 162.646 163.717 162.646 162.322 161.251C160.928 159.857 160.928 157.595 162.322 156.201C163.717 154.806 165.978 154.806 167.373 156.201C168.768 157.595 168.768 159.857 167.373 161.251Z" fill="white"/>
<path d="M182.525 176.404C181.131 177.798 178.869 177.798 177.475 176.404C176.08 175.009 176.08 172.748 177.475 171.353C178.869 169.958 181.131 169.958 182.525 171.353C183.92 172.748 183.92 175.009 182.525 176.404Z" fill="white"/>
<path d="M197.678 191.556C196.283 192.951 194.022 192.951 192.627 191.556C191.232 190.161 191.232 187.9 192.627 186.505C194.022 185.11 196.283 185.11 197.678 186.505C199.072 187.9 199.072 190.161 197.678 191.556Z" fill="white"/>
<path d="M212.83 206.708C211.435 208.103 209.174 208.103 207.779 206.708C206.384 205.313 206.384 203.052 207.779 201.657C209.174 200.263 211.435 200.263 212.83 201.657C214.225 203.052 214.225 205.313 212.83 206.708Z" fill="white"/>
<path d="M227.982 221.86C226.588 223.255 224.326 223.255 222.931 221.86C221.537 220.466 221.537 218.204 222.931 216.81C224.326 215.415 226.588 215.415 227.982 216.81C229.377 218.204 229.377 220.466 227.982 221.86Z" fill="white"/>
<path d="M91.6117 115.794C90.2169 117.189 87.9556 117.189 86.5609 115.794C85.1662 114.4 85.1662 112.138 86.5609 110.744C87.9556 109.349 90.2169 109.349 91.6117 110.744C93.0064 112.138 93.0064 114.4 91.6117 115.794Z" fill="white"/>
<path d="M106.764 130.947C105.369 132.341 103.108 132.341 101.713 130.947C100.318 129.552 100.318 127.291 101.713 125.896C103.108 124.501 105.369 124.501 106.764 125.896C108.159 127.291 108.159 129.552 106.764 130.947Z" fill="white"/>
<path d="M121.916 146.099C120.522 147.494 118.26 147.494 116.865 146.099C115.471 144.704 115.471 142.443 116.865 141.048C118.26 139.654 120.521 139.654 121.916 141.048C123.311 142.443 123.311 144.704 121.916 146.099Z" fill="white"/>
<path d="M137.069 161.251C135.674 162.646 133.412 162.646 132.018 161.251C130.623 159.857 130.623 157.595 132.018 156.201C133.412 154.806 135.674 154.806 137.069 156.201C138.463 157.595 138.463 159.857 137.069 161.251Z" fill="white"/>
<path d="M152.221 176.404C150.826 177.798 148.565 177.798 147.17 176.404C145.775 175.009 145.775 172.748 147.17 171.353C148.565 169.958 150.826 169.958 152.221 171.353C153.616 172.748 153.616 175.009 152.221 176.404Z" fill="white"/>
<path d="M167.373 191.556C165.978 192.951 163.717 192.951 162.322 191.556C160.928 190.161 160.928 187.9 162.322 186.505C163.717 185.11 165.978 185.11 167.373 186.505C168.768 187.9 168.768 190.161 167.373 191.556Z" fill="white"/>
<path d="M182.525 206.708C181.131 208.103 178.869 208.103 177.475 206.708C176.08 205.313 176.08 203.052 177.475 201.657C178.869 200.263 181.131 200.263 182.525 201.657C183.92 203.052 183.92 205.313 182.525 206.708Z" fill="white"/>
<path d="M197.678 221.86C196.283 223.255 194.022 223.255 192.627 221.86C191.232 220.466 191.232 218.204 192.627 216.81C194.022 215.415 196.283 215.415 197.678 216.81C199.072 218.204 199.072 220.466 197.678 221.86Z" fill="white"/>
<path d="M91.6117 146.099C90.2169 147.494 87.9556 147.494 86.5609 146.099C85.1662 144.704 85.1662 142.443 86.5609 141.048C87.9556 139.654 90.2169 139.654 91.6117 141.048C93.0064 142.443 93.0064 144.704 91.6117 146.099Z" fill="white"/>
<path d="M106.764 161.251C105.369 162.646 103.108 162.646 101.713 161.251C100.318 159.857 100.318 157.595 101.713 156.201C103.108 154.806 105.369 154.806 106.764 156.201C108.159 157.595 108.159 159.857 106.764 161.251Z" fill="white"/>
<path d="M121.916 176.404C120.521 177.798 118.26 177.798 116.865 176.404C115.471 175.009 115.471 172.748 116.865 171.353C118.26 169.958 120.521 169.958 121.916 171.353C123.311 172.748 123.311 175.009 121.916 176.404Z" fill="white"/>
<path d="M137.069 191.556C135.674 192.951 133.412 192.951 132.018 191.556C130.623 190.161 130.623 187.9 132.018 186.505C133.412 185.11 135.674 185.11 137.069 186.505C138.463 187.9 138.463 190.161 137.069 191.556Z" fill="white"/>
<path d="M152.221 206.708C150.826 208.103 148.565 208.103 147.17 206.708C145.775 205.313 145.775 203.052 147.17 201.657C148.565 200.263 150.826 200.263 152.221 201.657C153.616 203.052 153.616 205.313 152.221 206.708Z" fill="white"/>
<path d="M167.373 221.86C165.978 223.255 163.717 223.255 162.322 221.86C160.928 220.466 160.928 218.204 162.322 216.81C163.717 215.415 165.978 215.415 167.373 216.81C168.768 218.204 168.768 220.466 167.373 221.86Z" fill="white"/>
<path d="M91.6117 176.404C90.2169 177.798 87.9556 177.798 86.5609 176.404C85.1662 175.009 85.1662 172.748 86.5609 171.353C87.9556 169.958 90.2169 169.958 91.6116 171.353C93.0064 172.748 93.0064 175.009 91.6117 176.404Z" fill="white"/>
<path d="M106.764 191.556C105.369 192.951 103.108 192.951 101.713 191.556C100.318 190.161 100.318 187.9 101.713 186.505C103.108 185.11 105.369 185.11 106.764 186.505C108.159 187.9 108.159 190.161 106.764 191.556Z" fill="white"/>
<path d="M121.916 206.708C120.521 208.103 118.26 208.103 116.865 206.708C115.471 205.313 115.471 203.052 116.865 201.657C118.26 200.263 120.521 200.263 121.916 201.657C123.311 203.052 123.311 205.313 121.916 206.708Z" fill="white"/>
<path d="M137.069 221.86C135.674 223.255 133.412 223.255 132.018 221.86C130.623 220.466 130.623 218.204 132.018 216.81C133.412 215.415 135.674 215.415 137.069 216.81C138.463 218.204 138.463 220.466 137.069 221.86Z" fill="white"/>
</g>
<circle cx="179.5" cy="129.5" r="64.5" fill="white"/>
<path d="M222.227 124.429L216.221 117.45C215.072 116.125 214.145 113.652 214.145 111.885V104.377C214.145 99.6954 210.302 95.8529 205.621 95.8529H198.112C196.39 95.8529 193.872 94.9254 192.547 93.7771L185.569 87.7704C182.521 85.1646 177.531 85.1646 174.439 87.7704L167.505 93.8213C166.18 94.9254 163.662 95.8529 161.94 95.8529H154.299C149.617 95.8529 145.775 99.6954 145.775 104.377V111.93C145.775 113.652 144.847 116.125 143.743 117.45L137.78 124.473C135.219 127.52 135.219 132.467 137.78 135.515L143.743 142.537C144.847 143.862 145.775 146.335 145.775 148.058V155.61C145.775 160.292 149.617 164.135 154.299 164.135H161.94C163.662 164.135 166.18 165.062 167.505 166.211L174.483 172.217C177.531 174.823 182.521 174.823 185.613 172.217L192.591 166.211C193.916 165.062 196.39 164.135 198.156 164.135H205.665C210.346 164.135 214.189 160.292 214.189 155.61V148.102C214.189 146.38 215.116 143.862 216.265 142.537L222.271 135.559C224.833 132.511 224.833 127.476 222.227 124.429ZM198.377 121.646L177.045 142.979C176.426 143.597 175.587 143.95 174.704 143.95C173.821 143.95 172.981 143.597 172.363 142.979L161.675 132.29C160.394 131.01 160.394 128.89 161.675 127.609C162.955 126.328 165.075 126.328 166.356 127.609L174.704 135.956L193.696 116.965C194.976 115.684 197.096 115.684 198.377 116.965C199.658 118.245 199.658 120.365 198.377 121.646Z" fill="#43A047"/>
</g>
</svg>
