<svg width="32" height="32" viewBox="0 0 32 32" fill="none" xmlns="http://www.w3.org/2000/svg">
<path fill-rule="evenodd" clip-rule="evenodd" d="M29.3334 21.5865V10.4132C29.3334 5.55984 26.4401 2.6665 21.5868 2.6665H10.4134C5.56008 2.6665 2.66675 5.55984 2.66675 10.4132V21.5865C2.66675 25.3332 4.38675 27.9065 7.41341 28.8798C8.29342 29.1865 9.30675 29.3332 10.4134 29.3332H21.5868C22.6934 29.3332 23.7067 29.1865 24.5868 28.8798C27.6134 27.9065 29.3334 25.3332 29.3334 21.5865ZM20.7759 15.4398C20.7759 18.0798 18.6426 20.2265 16.0026 20.2265C13.3626 20.2265 11.2292 18.0798 11.2292 15.4398C11.2292 12.7999 13.3626 10.6665 16.0026 10.6665C18.6426 10.6665 20.7759 12.7999 20.7759 15.4398ZM24.5848 28.8783C23.7048 29.185 22.6915 29.3317 21.5848 29.3317H10.4115C9.30483 29.3317 8.2915 29.185 7.4115 28.8783C7.87817 25.3583 11.5582 22.625 15.9982 22.625C20.4382 22.625 24.1182 25.3583 24.5848 28.8783Z" fill="#BDBDBD"/>
</svg>
