<svg width="106" height="106" viewBox="0 0 106 106" fill="none" xmlns="http://www.w3.org/2000/svg">
<path d="M95.2275 47.4287L89.2208 40.4503C88.0725 39.1253 87.145 36.652 87.145 34.8853V27.377C87.145 22.6953 83.3025 18.8528 78.6208 18.8528H71.1125C69.39 18.8528 66.8725 17.9253 65.5475 16.777L58.5691 10.7703C55.5216 8.16446 50.5308 8.16446 47.4391 10.7703L40.5048 16.8211C39.1798 17.9253 36.6623 18.8528 34.9398 18.8528H27.299C22.6173 18.8528 18.7748 22.6953 18.7748 27.377V34.9295C18.7748 36.652 17.8473 39.1253 16.7431 40.4503L10.7806 47.4728C8.21896 50.5203 8.21896 55.467 10.7806 58.5145L16.7431 65.537C17.8473 66.862 18.7748 69.3353 18.7748 71.0578V78.6103C18.7748 83.292 22.6173 87.1345 27.299 87.1345H34.9398C36.6623 87.1345 39.1798 88.062 40.5048 89.2103L47.4833 95.217C50.5308 97.8228 55.5216 97.8228 58.6133 95.217L65.5916 89.2103C66.9166 88.062 69.39 87.1345 71.1566 87.1345H78.665C83.3466 87.1345 87.1891 83.292 87.1891 78.6103V71.102C87.1891 69.3795 88.1166 66.862 89.265 65.537L95.2716 58.5587C97.8333 55.5112 97.8333 50.4762 95.2275 47.4287ZM71.3775 44.6462L50.045 65.9787C49.4266 66.597 48.5875 66.9503 47.7041 66.9503C46.8208 66.9503 45.9816 66.597 45.3633 65.9787L34.6748 55.2903C33.394 54.0095 33.394 51.8895 34.6748 50.6087C35.9556 49.3278 38.0756 49.3278 39.3565 50.6087L47.7041 58.9562L66.6958 39.9645C67.9766 38.6836 70.0966 38.6836 71.3775 39.9645C72.6583 41.2453 72.6583 43.3653 71.3775 44.6462Z" fill="#2962FF"/>
</svg>
